<?xml version="1.0" standalone="no"?>
<!DOCTYPE svg PUBLIC "-//W3C//DTD SVG 20010904//EN"
 "http://www.w3.org/TR/2001/REC-SVG-20010904/DTD/svg10.dtd">
<svg version="1.0" xmlns="http://www.w3.org/2000/svg"
 width="1136.000000pt" height="653.000000pt" viewBox="0 0 1136.000000 653.000000"
 preserveAspectRatio="xMidYMid meet">

<g transform="translate(0.000000,653.000000) scale(0.100000,-0.100000)"
fill="#000000" stroke="none">
<path d="M4020 5496 c-73 -16 -145 -55 -200 -108 -45 -43 -101 -108 -95 -108
2 0 -7 -30 -21 -67 -23 -60 -25 -79 -22 -168 3 -88 8 -108 37 -168 60 -126
182 -223 310 -247 29 -5 144 -10 254 -10 l201 0 -32 31 c-18 17 -32 39 -32 49
0 9 -11 29 -25 44 l-25 27 -32 -24 c-88 -65 -247 -82 -358 -39 -64 25 -167
112 -176 148 -3 13 -10 24 -14 24 -5 0 -18 28 -29 62 -93 275 141 548 428 498
246 -43 387 -304 285 -530 -14 -30 -32 -63 -41 -72 -15 -17 -15 -20 7 -43 13
-14 33 -25 44 -25 11 0 35 -14 53 -32 l33 -32 0 196 c0 216 -8 278 -46 356
-91 187 -297 284 -504 238z"/>
<path d="M4050 5397 c-182 -40 -298 -219 -260 -401 6 -31 15 -56 19 -56 16 0
20 14 8 28 -7 9 -12 46 -12 96 1 103 27 167 96 231 72 67 127 89 224 90 69 0
88 -4 137 -29 70 -35 118 -84 155 -156 23 -47 27 -67 27 -135 0 -66 -5 -90
-27 -136 -32 -67 -99 -132 -165 -162 -62 -28 -178 -29 -244 -4 -48 19 -69 46
-25 32 71 -22 67 -25 67 62 0 76 -1 80 -33 111 l-33 32 -23 -22 c-22 -20 -23
-27 -18 -104 l5 -83 -34 25 c-18 14 -36 34 -39 45 -7 21 -25 26 -25 6 0 -15
49 -63 96 -95 18 -12 60 -29 95 -38 157 -40 320 36 388 180 39 83 47 148 26
228 -47 184 -223 295 -405 255z"/>
<path d="M5689 5359 c-14 -14 -18 -27 -13 -42 9 -28 22 -37 60 -37 37 0 54 16
54 52 0 47 -63 65 -101 27z"/>
<path d="M4830 5347 c-35 -18 -70 -74 -70 -113 0 -43 32 -76 93 -99 86 -31 37
-68 -54 -41 -24 7 -28 4 -38 -25 -17 -49 -14 -56 26 -70 83 -27 182 -8 217 43
20 29 21 107 1 135 -9 12 -39 28 -70 38 -42 12 -55 20 -55 35 0 26 32 34 74
16 l35 -14 15 44 15 43 -37 11 c-50 14 -122 12 -152 -3z"/>
<path d="M6430 5180 l0 -180 115 0 115 0 0 45 0 45 -61 0 c-57 0 -60 1 -57 23
3 19 10 22 56 25 l53 3 -3 37 -3 37 -53 3 c-48 3 -53 5 -50 25 3 19 11 23 58
27 l55 5 3 43 3 42 -115 0 -116 0 0 -180z"/>
<path d="M6230 5289 c0 -32 -4 -42 -20 -46 -16 -4 -20 -14 -20 -43 0 -29 4
-39 20 -43 18 -5 20 -14 20 -86 l0 -81 50 0 50 0 0 81 c0 72 2 81 20 86 16 4
20 14 20 43 0 29 -4 39 -20 43 -16 4 -20 14 -20 46 l0 41 -50 0 -50 0 0 -41z"/>
<path d="M5090 5076 c0 -90 -3 -171 -6 -180 -5 -13 3 -16 52 -16 l59 0 -3 65
c-4 70 1 76 43 49 35 -23 89 -11 114 25 30 42 25 160 -9 196 -27 29 -84 34
-116 10 -25 -19 -34 -19 -34 0 0 11 -12 15 -50 15 l-50 0 0 -164z m170 70 c28
-35 -11 -93 -47 -70 -36 22 -23 84 17 84 10 0 23 -7 30 -14z"/>
<path d="M5430 5115 l0 -125 55 0 55 0 0 65 c0 58 3 66 25 81 14 9 32 14 40
10 12 -4 15 4 15 44 0 54 -11 62 -46 35 -25 -19 -44 -19 -44 0 0 11 -12 15
-50 15 l-50 0 0 -125z"/>
<path d="M5680 5115 l0 -125 55 0 55 0 0 125 0 125 -55 0 -55 0 0 -125z"/>
<path d="M5870 5115 l0 -125 55 0 55 0 0 80 c0 64 3 82 16 87 27 10 39 -15 42
-92 l4 -75 49 0 49 0 0 99 c0 84 -3 102 -21 125 -16 20 -29 26 -59 26 -21 0
-43 -6 -50 -15 -7 -8 -19 -15 -26 -15 -8 0 -14 7 -14 15 0 11 -12 15 -50 15
l-50 0 0 -125z"/>
<path d="M6730 5115 l0 -125 55 0 55 0 0 65 c0 58 3 66 25 81 14 9 32 14 40
10 12 -4 15 4 15 44 0 54 -11 62 -46 35 -25 -19 -44 -19 -44 0 0 11 -12 15
-50 15 l-50 0 0 -125z"/>
<path d="M6980 5076 c0 -90 -3 -171 -6 -180 -5 -14 3 -16 53 -16 l59 0 -4 65
c-5 71 -1 75 45 48 36 -20 73 -12 110 25 23 22 28 35 27 72 -2 101 -33 150
-94 150 -20 0 -45 -7 -56 -15 -25 -19 -34 -19 -34 0 0 11 -12 15 -50 15 l-50
0 0 -164z m170 70 c28 -35 -11 -93 -47 -70 -36 22 -23 84 17 84 10 0 23 -7 30
-14z"/>
<path d="M4232 5203 c-32 -4 -33 -6 -18 -22 15 -16 11 -23 -55 -94 -39 -42
-77 -77 -84 -77 -8 0 -30 14 -50 32 l-36 31 -45 -44 c-24 -24 -44 -48 -44 -53
0 -6 17 7 38 27 21 20 43 37 49 37 6 0 27 -18 47 -41 19 -23 39 -39 44 -38 6
2 47 39 91 82 81 77 103 88 118 65 8 -14 20 25 22 75 1 29 0 29 -77 20z"/>
<path d="M4227 5053 c-25 -27 -26 -34 -27 -138 -1 -60 -1 -116 -1 -124 1 -16
43 -8 79 15 21 14 22 21 22 132 0 147 -16 173 -73 115z"/>
<path d="M4112 4947 c-41 -42 -42 -45 -42 -109 0 -71 5 -78 59 -78 45 0 51 15
51 127 0 120 -5 124 -68 60z"/>
<path d="M5995 4900 l-29 -30 52 0 c58 0 63 6 29 38 l-23 22 -29 -30z"/>
<path d="M6075 4799 c-9 -24 -2 -104 10 -104 14 0 19 80 6 102 -9 16 -10 16
-16 2z"/>
<path d="M5924 4755 c-3 -19 -3 -42 0 -52 6 -14 9 -15 21 -2 10 10 13 26 8 52
-7 47 -20 48 -29 2z"/>
<path d="M6543 4783 c-16 -6 -18 -93 -2 -93 6 0 13 9 16 19 3 11 15 21 27 23
30 4 28 40 -4 48 -14 4 -31 5 -37 3z"/>
<path d="M6874 4743 c1 -60 21 -55 21 5 1 26 -4 42 -11 42 -8 0 -11 -17 -10
-47z"/>
<path d="M5020 4771 c0 -4 4 -11 9 -16 5 -6 11 -21 13 -34 4 -29 28 -41 28
-14 0 11 7 28 15 39 21 28 19 31 -25 31 -22 0 -40 -3 -40 -6z"/>
<path d="M5420 4736 c0 -47 17 -63 27 -27 3 11 15 21 27 23 13 2 21 10 21 23
0 16 -8 21 -37 23 l-38 3 0 -45z"/>
<path d="M5617 4766 c-7 -19 6 -69 20 -73 11 -4 24 54 16 75 -7 16 -30 15 -36
-2z"/>
<path d="M5867 4768 c-8 -21 5 -79 16 -75 14 4 27 54 20 73 -6 17 -29 18 -36
2z"/>
<path d="M6213 4773 c-7 -2 -13 -18 -13 -34 0 -46 56 -60 88 -21 16 20 15 27
-4 46 -15 16 -46 20 -71 9z m45 -35 c-6 -18 -28 -21 -28 -4 0 9 7 16 16 16 9
0 14 -5 12 -12z"/>
<path d="M5122 4751 c-25 -15 -10 -46 23 -46 21 0 31 5 33 19 4 18 -13 36 -33
36 -5 0 -16 -4 -23 -9z"/>
<path d="M5200 4735 c0 -27 30 -48 54 -39 9 3 16 15 16 25 0 10 0 22 1 26 2
19 -19 11 -26 -9 l-8 -23 -4 23 c-6 30 -33 29 -33 -3z"/>
<path d="M5300 4731 c0 -42 16 -47 34 -10 20 40 21 39 -9 39 -21 0 -25 -5 -25
-29z"/>
<path d="M5531 4746 c-20 -24 -6 -46 29 -46 28 0 31 3 28 28 -4 32 -37 42 -57
18z"/>
<path d="M5682 4743 c-14 -28 -3 -43 31 -42 18 1 24 3 15 6 -25 6 -22 23 3 23
18 0 19 2 9 15 -17 20 -47 19 -58 -2z"/>
<path d="M5770 4731 c0 -36 19 -51 27 -22 7 27 23 27 23 1 0 -11 5 -20 10 -20
6 0 10 16 10 35 0 33 -2 35 -35 35 -32 0 -35 -2 -35 -29z"/>
<path d="M5973 4744 c-9 -24 4 -41 36 -46 37 -5 41 -3 41 33 0 24 -3 27 -36
27 -21 0 -38 -6 -41 -14z"/>
<path d="M6310 4741 c0 -20 24 -51 40 -51 16 0 40 31 40 51 0 26 -26 24 -35
-3 l-8 -23 -4 23 c-5 27 -33 30 -33 3z"/>
<path d="M6410 4731 c0 -42 16 -47 34 -10 20 40 21 39 -9 39 -21 0 -25 -5 -25
-29z"/>
<path d="M6635 4739 c-9 -26 2 -36 40 -41 27 -3 30 0 33 30 3 31 2 32 -32 32
-26 0 -36 -5 -41 -21z"/>
<path d="M6739 4758 c-1 -2 -3 -15 -5 -30 -2 -24 1 -28 23 -28 19 0 24 4 19
16 -3 9 -6 22 -6 30 0 11 -27 21 -31 12z"/>
<path d="M6809 4758 c-1 -2 -2 -15 -3 -30 -2 -23 2 -28 21 -28 25 0 26 3 17
38 -5 17 -29 31 -35 20z"/>
<path d="M6921 4742 c-13 -24 4 -42 36 -42 28 0 40 24 23 45 -17 21 -47 19
-59 -3z"/>
<path d="M7010 4731 c0 -36 19 -51 27 -22 7 27 19 27 27 -1 4 -17 8 -20 17
-11 7 7 9 22 5 37 -5 22 -12 26 -41 26 -32 0 -35 -2 -35 -29z"/>
<path d="M6115 4710 c-3 -5 1 -10 9 -10 9 0 16 5 16 10 0 6 -4 10 -9 10 -6 0
-13 -4 -16 -10z"/>
<path d="M7110 4710 c0 -5 5 -10 10 -10 6 0 10 5 10 10 0 6 -4 10 -10 10 -5 0
-10 -4 -10 -10z"/>
<path d="M5000 2390 l0 -310 65 0 65 0 0 310 0 310 -65 0 -65 0 0 -310z"/>
<path d="M5543 2654 c-23 -8 -58 -33 -77 -55 -31 -34 -36 -46 -36 -90 0 -94
35 -128 198 -189 99 -38 125 -66 101 -108 -20 -36 -66 -48 -121 -31 -36 12
-45 20 -54 49 -11 34 -12 35 -73 38 -74 4 -83 -8 -55 -76 34 -83 135 -129 258
-120 75 6 140 38 166 81 24 39 26 116 5 158 -21 39 -84 84 -148 105 -84 27
-136 55 -142 75 -9 29 12 57 53 69 48 15 87 1 110 -40 16 -28 20 -30 81 -30
l64 0 -6 34 c-14 86 -89 138 -206 143 -51 2 -90 -3 -118 -13z"/>
<path d="M2650 2442 c0 -246 -4 -262 -65 -262 -37 0 -65 21 -65 51 0 17 -8 19
-70 19 -66 0 -70 -1 -70 -23 0 -43 43 -110 84 -131 49 -25 141 -32 191 -16 52
17 113 75 125 118 5 21 10 133 10 250 l0 212 -70 0 -70 0 0 -218z"/>
<path d="M2989 2510 c-45 -13 -79 -42 -107 -89 -23 -40 -27 -57 -27 -126 0
-69 4 -86 27 -127 36 -60 83 -89 157 -95 143 -13 231 71 231 222 0 109 -39
175 -122 210 -39 16 -115 19 -159 5z m128 -126 c11 -18 17 -47 17 -89 0 -80
-20 -115 -67 -115 -41 0 -53 8 -66 43 -22 56 -9 160 22 179 7 4 27 8 44 8 24
0 37 -7 50 -26z"/>
<path d="M3959 2495 c-29 -30 -39 -31 -39 -5 0 18 -7 20 -65 20 l-65 0 0 -215
0 -215 70 0 70 0 0 143 c0 98 4 147 12 155 7 7 31 12 54 12 l41 0 7 46 c11 81
10 84 -28 84 -23 0 -41 -8 -57 -25z"/>
<path d="M4300 2513 c-8 -3 -27 -14 -42 -24 -33 -24 -38 -24 -38 1 0 18 -7 20
-65 20 l-65 0 0 -215 0 -215 70 0 70 0 0 159 c0 175 -2 171 66 171 48 0 54
-22 54 -191 l0 -139 65 0 65 0 0 174 c0 164 -1 175 -23 207 -12 18 -34 39 -47
46 -26 13 -83 16 -110 6z"/>
<path d="M4655 2507 c-54 -22 -75 -37 -90 -67 -28 -53 -22 -60 50 -60 54 0 66
3 75 20 12 23 59 27 78 8 7 -7 12 -27 12 -45 l0 -33 -62 0 c-72 0 -136 -25
-162 -61 -9 -14 -16 -43 -16 -71 0 -41 5 -54 33 -85 29 -31 41 -37 88 -40 46
-4 60 -1 91 20 36 25 37 25 43 6 6 -16 16 -19 77 -19 63 0 69 2 62 18 -4 9
-10 85 -13 169 -6 164 -12 180 -73 226 -32 24 -148 33 -193 14z m125 -282 c0
-38 -20 -55 -64 -55 -32 0 -51 32 -36 59 12 23 25 29 68 30 30 1 32 -1 32 -34z"/>
<path d="M6029 2497 c-33 -18 -51 -37 -72 -78 -26 -49 -28 -61 -25 -141 3 -79
6 -90 34 -125 60 -76 159 -102 268 -69 71 22 77 29 58 77 -11 30 -19 38 -31
33 -9 -4 -44 -9 -79 -12 -56 -4 -66 -2 -88 19 -46 43 -35 49 102 49 l127 0 -6
70 c-8 94 -37 148 -97 178 -60 30 -133 30 -191 -1z m141 -106 c22 -42 14 -51
-45 -51 -59 0 -67 9 -45 51 15 26 75 26 90 0z"/>
<path d="M7390 2498 c-76 -39 -116 -123 -108 -228 5 -73 34 -128 87 -165 39
-27 50 -30 125 -30 59 0 93 5 124 19 23 10 42 22 42 26 0 4 -7 24 -16 45 -12
29 -19 35 -32 29 -9 -4 -43 -10 -75 -12 -64 -4 -100 11 -110 47 -5 20 -1 21
119 21 l124 0 0 63 c-1 96 -43 170 -113 196 -47 18 -119 13 -167 -11z m139
-119 c6 -18 11 -34 11 -35 0 -2 -27 -4 -61 -4 -58 0 -60 1 -53 23 11 36 25 47
59 47 28 0 35 -5 44 -31z"/>
<path d="M7925 2511 c-11 -5 -29 -19 -40 -31 l-20 -22 -5 24 c-5 21 -12 23
-73 26 l-67 3 0 -216 0 -215 70 0 70 0 0 153 c0 106 4 157 12 165 20 20 86 15
98 -7 5 -11 10 -84 10 -165 l0 -146 70 0 70 0 0 140 c0 178 -11 230 -56 270
-27 24 -44 30 -77 29 -23 0 -51 -4 -62 -8z"/>
<path d="M8296 2510 c-75 -24 -125 -109 -126 -213 0 -144 75 -227 208 -227 83
0 158 55 169 123 l6 37 -62 0 c-56 0 -62 -2 -71 -25 -14 -36 -73 -36 -97 1
-23 36 -23 142 1 178 24 37 75 33 94 -6 12 -26 18 -28 73 -28 58 0 59 0 59 29
0 33 -33 85 -73 115 -31 23 -131 32 -181 16z"/>
<path d="M8699 2497 c-33 -18 -51 -37 -72 -78 -26 -49 -28 -61 -25 -141 3 -79
6 -90 34 -125 60 -76 159 -102 268 -69 71 22 77 29 58 77 -11 30 -19 38 -31
33 -9 -4 -44 -9 -79 -12 -56 -4 -66 -2 -88 19 -46 43 -35 49 102 49 l127 0 -6
70 c-8 94 -37 148 -97 178 -60 30 -133 30 -191 -1z m141 -106 c22 -42 14 -51
-45 -51 -59 0 -67 9 -45 51 15 26 75 26 90 0z"/>
<path d="M3330 2350 c0 -174 7 -206 54 -249 18 -18 41 -26 78 -29 45 -3 59 0
91 22 38 26 39 26 44 6 5 -17 13 -20 64 -20 l59 0 0 215 0 215 -70 0 -70 0 0
-159 c0 -173 1 -171 -59 -171 -47 0 -51 12 -51 177 l0 153 -70 0 -70 0 0 -160z"/>
<path d="M6439 2487 c-54 -36 -82 -103 -82 -200 0 -93 20 -146 73 -191 41 -34
108 -38 163 -10 l27 15 0 -96 0 -95 70 0 70 0 0 300 0 300 -60 0 c-55 0 -60
-2 -66 -25 l-6 -25 -30 25 c-40 33 -111 35 -159 2z m160 -94 c20 -17 22 -26
19 -113 -3 -94 -3 -95 -31 -104 -66 -23 -108 45 -93 149 12 76 58 106 105 68z"/>
<path d="M6830 2350 c0 -174 7 -206 54 -249 18 -18 41 -26 78 -29 45 -3 59 0
91 22 38 26 39 26 44 6 5 -17 13 -20 64 -20 l59 0 0 215 0 215 -70 0 -70 0 0
-159 c0 -173 1 -171 -59 -171 -47 0 -51 12 -51 177 l0 153 -70 0 -70 0 0 -160z"/>
</g>
</svg>
