<?xml version="1.0" encoding="iso-8859-1"?>
<!-- Uploaded to: SVG Repo, www.svgrepo.com, Generator: SVG Repo Mixer Tools -->
<svg fill="#000000" height="800px" width="800px" version="1.1" id="Layer_1" xmlns="http://www.w3.org/2000/svg" xmlns:xlink="http://www.w3.org/1999/xlink" 
	 viewBox="0 0 512 512" xml:space="preserve">
<g>
	<g>
		<path d="M256,153.921c-46.856,0-84.977,38.12-84.977,84.977s38.121,84.977,84.977,84.977s84.977-38.12,84.977-84.977
			S302.856,153.921,256,153.921z M256,307.841c-38.015,0-68.944-30.928-68.944-68.944s30.928-68.944,68.944-68.944
			s68.944,30.928,68.944,68.944S294.015,307.841,256,307.841z"/>
	</g>
</g>
<g>
	<g>
		<path d="M256,230.881c-5.01,0-9.086-4.076-9.086-9.086s4.076-9.086,9.086-9.086h17.102c4.427,0,8.017-3.588,8.017-8.017
			c0-4.428-3.589-8.017-8.017-8.017h-9.086v-9.086c0-4.428-3.589-8.017-8.017-8.017s-8.017,3.588-8.017,8.017v10.405
			c-9.93,3.354-17.102,12.752-17.102,23.8c0,13.851,11.268,25.119,25.119,25.119c5.01,0,9.086,4.076,9.086,9.086
			s-4.076,9.086-9.086,9.086h-17.102c-4.427,0-8.017,3.588-8.017,8.017s3.589,8.017,8.017,8.017h9.086v9.086
			c0,4.428,3.589,8.017,8.017,8.017s8.017-3.588,8.017-8.017V279.8c9.93-3.354,17.102-12.752,17.102-23.8
			C281.119,242.149,269.851,230.881,256,230.881z"/>
	</g>
</g>
<g>
	<g>
		<path d="M508.829,189.754l-31.033-23.541v-64.134c0-4.428-3.589-8.017-8.017-8.017h-87.09L271.182,9.47
			c-8.938-6.781-21.424-6.781-30.362,0L129.312,94.063h-87.09c-4.427,0-8.017,3.588-8.017,8.017v64.134L3.171,189.754
			C1.196,191.256,0,193.66,0,196.142v307.841C0,508.412,3.589,512,8.017,512h342.046c4.427,0,8.017-3.588,8.017-8.017
			c0-4.428-3.589-8.017-8.017-8.017H16.033V210.553l459.833,285.414h-83.048c-4.427,0-8.017,3.588-8.017,8.017
			c0,4.428,3.589,8.017,8.017,8.017H503.96c3.114,0,5.995-1.849,7.301-4.668c0.48-1.041,0.74-2.2,0.74-3.349V196.142
			C512,193.66,510.803,191.256,508.829,189.754z M34.205,202.961l-12.052-7.481l12.052-9.142V202.961z M477.795,186.338
			l12.052,9.142l-12.052,7.481V186.338z M68.409,179.04v45.152l-18.171-11.279V110.096h163.006c4.427,0,8.017-3.588,8.017-8.017
			s-3.589-8.017-8.017-8.017H155.84l94.669-71.817c3.233-2.453,7.748-2.453,10.982,0l94.669,71.817H256
			c-4.427,0-8.017,3.588-8.017,8.017s3.589,8.017,8.017,8.017h205.762v102.817l-18.171,11.279V179.04
			c0-4.428-3.589-8.017-8.017-8.017c-19.155,0-34.739-15.583-34.739-34.739c0-4.428-3.589-8.017-8.017-8.017H119.182
			c-4.427,0-8.017,3.588-8.017,8.017c0,19.156-15.584,34.739-34.739,34.739C71.999,171.023,68.409,174.611,68.409,179.04z
			 M84.443,234.144v-47.721c21.588-3.439,38.684-20.535,42.124-42.123h258.868c3.439,21.588,20.534,38.684,42.124,42.123v47.721
			L256.001,340.628L84.443,234.144z M495.967,489.573l-224.766-139.51l224.766-139.51V489.573z"/>
	</g>
</g>
<g>
	<g>
		<path d="M375.716,17.102h-9.086V8.017c0-4.428-3.589-8.017-8.017-8.017s-8.017,3.588-8.017,8.017v9.086h-9.086
			c-4.427,0-8.017,3.588-8.017,8.017c0,4.428,3.589,8.017,8.017,8.017h9.086v9.086c0,4.428,3.589,8.017,8.017,8.017
			s8.017-3.588,8.017-8.017v-9.086h9.086c4.427,0,8.017-3.588,8.017-8.017C383.733,20.691,380.143,17.102,375.716,17.102z"/>
	</g>
</g>
<g>
	<g>
		<path d="M102.079,42.756h-9.086V33.67c0-4.428-3.589-8.017-8.017-8.017s-8.017,3.588-8.017,8.017v9.086h-9.086
			c-4.427,0-8.017,3.588-8.017,8.017c0,4.428,3.589,8.017,8.017,8.017h9.086v9.086c0,4.428,3.589,8.017,8.017,8.017
			s8.017-3.588,8.017-8.017v-9.086h9.086c4.427,0,8.017-3.588,8.017-8.017C110.096,46.344,106.507,42.756,102.079,42.756z"/>
	</g>
</g>
<g>
	<g>
		<path d="M444.125,42.756h-9.086V33.67c0-4.428-3.589-8.017-8.017-8.017c-4.427,0-8.017,3.588-8.017,8.017v9.086h-9.086
			c-4.427,0-8.017,3.588-8.017,8.017c0,4.428,3.589,8.017,8.017,8.017h9.086v9.086c0,4.428,3.589,8.017,8.017,8.017
			c4.427,0,8.017-3.588,8.017-8.017v-9.086h9.086c4.427,0,8.017-3.588,8.017-8.017C452.142,46.344,448.553,42.756,444.125,42.756z"
			/>
	</g>
</g>
<g>
	<g>
		<path d="M170.489,17.102h-9.086V8.017c0-4.428-3.589-8.017-8.017-8.017s-8.017,3.588-8.017,8.017v9.086h-9.086
			c-4.427,0-8.017,3.588-8.017,8.017c0,4.428,3.589,8.017,8.017,8.017h9.086v9.086c0,4.428,3.589,8.017,8.017,8.017
			s8.017-3.588,8.017-8.017v-9.086h9.086c4.427,0,8.017-3.588,8.017-8.017C178.505,20.691,174.916,17.102,170.489,17.102z"/>
	</g>
</g>
</svg>