<?xml version="1.0" encoding="iso-8859-1"?>
<!-- Uploaded to: SVG Repo, www.svgrepo.com, Generator: SVG Repo Mixer Tools -->
<svg height="800px" width="800px" version="1.1" id="Capa_1" xmlns="http://www.w3.org/2000/svg" xmlns:xlink="http://www.w3.org/1999/xlink" 
	 viewBox="0 0 53.289 53.289" xml:space="preserve">
<g>
	<g>
		<path style="fill:#010002;" d="M6.666,13.032H4c-2.206,0-4,1.794-4,4v25.333c0,2.206,1.794,4.001,4,4.001h2.666
			c2.206,0,4-1.794,4-4V17.032C10.666,14.826,8.872,13.032,6.666,13.032z M8.666,42.366c0,1.103-0.897,2-2,2H4
			c-1.103,0-2-0.897-2-2.001V17.032c0-1.103,0.897-2,2-2h2.666c1.103,0,2,0.897,2,2C8.666,17.032,8.666,42.366,8.666,42.366z"/>
		<path style="fill:#010002;" d="M49.289,13.032h-2.666c-2.206,0-4,1.794-4,4v25.333c0,2.206,1.794,4.001,4,4.001h2.666
			c2.206,0,4-1.794,4-4V17.032C53.289,14.826,51.495,13.032,49.289,13.032z M51.289,42.366c0,1.103-0.897,2-2,2h-2.666
			c-1.103,0-2-0.897-2-2.001V17.032c0-1.103,0.897-2,2-2h2.666c1.103,0,2,0.897,2,2V42.366z"/>
		<path style="fill:#010002;" d="M36.648,13.032H33.23V9.924c0-1.654-1.346-3-3-3h-7.5c-1.654,0-3,1.346-3,3v3.108h-3.416
			c-2.206,0-4,1.794-4,4v25.334c0,2.206,1.794,4,4,4h20.334c2.206,0,4-1.795,4-4.001V17.032
			C40.648,14.826,38.854,13.032,36.648,13.032z M21.73,9.924c0-0.551,0.449-1,1-1h7.5c0.552,0,1,0.449,1,1v3.108h-2.949v-0.086
			c0-0.599-0.806-1.085-1.801-1.085c-0.994,0-1.8,0.485-1.8,1.085c0,0.03,0,0.056,0,0.086h-2.95
			C21.73,13.032,21.73,9.924,21.73,9.924z M38.648,42.365c0,1.104-0.897,2.001-2,2.001H16.314c-1.103,0-2-0.897-2-2V17.032
			c0-1.103,0.897-2,2-2h3.416h13.5h3.418c1.103,0,2,0.897,2,2C38.648,17.032,38.648,42.365,38.648,42.365z"/>
	</g>
</g>
</svg>